<svg xmlns="http://www.w3.org/2000/svg" width="50" height="60" fill="none" viewBox="0 0 50 60"><path fill="#00786f" d="M20 0c10.62 0 19.306 8.279 19.958 18.735A17 17 0 0 0 35 18c-9.389 0-17 7.611-17 17 0 1.725.258 3.39.735 4.958C8.28 39.306 0 30.621 0 20 0 8.954 8.954 0 20 0"/><path fill="#00786f" d="M50 35c0 8.284-6.716 15-15 15-1.029 0-2.033-.105-3.003-.302-.158-6.388-5.308-11.537-11.695-11.695A15 15 0 0 1 20 35c0-8.284 6.716-15 15-15s15 6.716 15 15"/><path fill="#00786f" d="M10 50c0-5.523 4.477-10 10-10s10 4.477 10 10-4.477 10-10 10-10-4.477-10-10"/></svg>