<svg xmlns="http://www.w3.org/2000/svg" width="329" height="62" fill="none" viewBox="0 0 329 62"><path fill="#00786f" d="M20 0c10.62 0 19.306 8.279 19.958 18.735A17 17 0 0 0 35 18c-9.389 0-17 7.611-17 17 0 1.725.258 3.39.735 4.958C8.28 39.306 0 30.621 0 20 0 8.954 8.954 0 20 0"/><path fill="#00786f" d="M50 35c0 8.284-6.716 15-15 15-1.029 0-2.033-.105-3.003-.302-.158-6.388-5.308-11.537-11.695-11.695A15 15 0 0 1 20 35c0-8.284 6.716-15 15-15s15 6.716 15 15"/><path fill="#00786f" d="M10 50c0-5.523 4.477-10 10-10s10 4.477 10 10-4.477 10-10 10-10-4.477-10-10"/><path fill="#000" d="M138.477 19.417v5.17h-3.169q-5.586 0-8.922 3.419-3.252 3.418-3.252 9.255v23.014h-5.753V19.917h5.42l.5 7.922h-.584q.834-3.92 4.086-6.337Q130.055 19 134.725 19q.917 0 1.834.083.918.084 1.918.334m24.762 42.026q-5.837 0-10.34-2.669-4.42-2.668-6.92-7.421-2.502-4.753-2.502-11.09 0-6.254 2.418-11.007 2.502-4.836 6.838-7.504Q157.069 19 162.822 19q5.503 0 9.589 2.418 4.17 2.418 6.421 6.754 2.334 4.252 2.335 10.006v2.835h-34.521l.166-4.169h28.601q0-5.837-3.502-9.339-3.419-3.585-9.089-3.585-4.168 0-7.338 1.917-3.085 1.919-4.753 5.504-1.667 3.502-1.667 8.338 0 8.005 3.669 12.424 3.752 4.42 10.589 4.42 4.92 0 8.089-2.085 3.168-2.085 4.252-6.087h5.504q-1.585 6.337-6.171 9.756-4.585 3.336-11.757 3.336m36.603 0q-6.421 0-10.09-3.336-3.585-3.335-3.585-8.588 0-5.587 4.002-8.922t11.09-3.92l13.342-1.084V34.26q0-4.003-1.418-6.253-1.417-2.335-3.836-3.253-2.417-.917-5.42-.917-5.336 0-8.255 2.252-2.918 2.25-2.918 6.337h-5.253q0-4.086 2.084-7.088t5.837-4.67T204.094 19q4.753 0 8.339 1.668 3.585 1.584 5.67 5.003 2.168 3.335 2.168 8.672v26.099h-4.837l-.75-7.088q-1.835 3.836-5.837 6.004-3.919 2.085-9.005 2.085m1.334-4.67q6.42 0 9.923-4.086 3.502-4.086 3.502-10.59V39.93l-11.924.918q-5.67.5-8.172 2.835t-2.501 5.67q0 3.669 2.501 5.587 2.502 1.833 6.671 1.834m24.095-37.016h21.846v4.836h-21.846zm13.758 40.358h-5.67V7h5.67zm13.088-19.853q0-6.254 2.669-11.007 2.668-4.752 7.337-7.504Q266.793 19 272.63 19q5.92 0 10.506 2.752 4.67 2.752 7.338 7.504 2.668 4.753 2.668 11.007 0 6.088-2.668 10.923-2.668 4.753-7.338 7.505-4.585 2.752-10.506 2.752-5.837 0-10.507-2.752-4.669-2.752-7.337-7.505-2.669-4.836-2.669-10.923m5.837-.083q0 4.752 1.835 8.421 1.918 3.585 5.169 5.67 3.336 2.002 7.672 2.002t7.588-2.001q3.335-2.085 5.17-5.67 1.917-3.67 1.917-8.422 0-4.67-1.917-8.256-1.835-3.585-5.17-5.67-3.252-2.085-7.588-2.084t-7.672 2.084q-3.251 2.085-5.169 5.67-1.835 3.585-1.835 8.256m40.188 8.922h5.504q0 3.502 2.501 5.586 2.502 2.002 6.671 2.002 4.67 0 7.254-1.835 2.669-1.918 2.669-5.17 0-2.5-1.418-4.002-1.418-1.5-5.003-2.418l-6.921-1.751q-5.253-1.335-7.838-4.086t-2.585-6.838q0-3.501 1.835-6.087 1.834-2.668 5.086-4.085Q309.233 19 313.568 19q4.252 0 7.422 1.5 3.168 1.503 4.919 4.253 1.834 2.67 1.918 6.421h-5.587q-.082-3.585-2.418-5.503-2.335-1.918-6.42-1.918-4.252 0-6.588 1.751-2.251 1.75-2.251 5.003 0 4.67 6.587 6.337l6.921 1.751q5.253 1.334 7.671 3.92 2.502 2.585 2.502 6.92 0 3.586-1.918 6.337t-5.42 4.253q-3.418 1.418-8.005 1.418-6.753 0-10.756-3.336-4.003-3.418-4.003-9.005M112.151 0 75.028 46.34v-8.966L104.944 0zM76.034 0v60H70V0zM87.43 29.749l4.022-4.944L112.487 60h-7.039z"/></svg>